HIERARCHY
ROOT Haolin_28_06:Solving:Hips
{
	OFFSET 0.000000 0.000000 0.000000
	CHANNELS 6 Xposition Yposition Zposition Xrotation Yrotation Zrotation
	JOINT Haolin_28_06:Solving:Spine
	{
		OFFSET 0.000000 -12.181966 2.015561
		CHANNELS 6 Xposition Yposition Zposition Xrotation Yrotation Zrotation
		JOINT Haolin_28_06:Solving:Spine1
		{
			OFFSET 0.000000 -8.890296 1.567602
			CHANNELS 6 Xposition Yposition Zposition Xrotation Yrotation Zrotation
			JOINT Haolin_28_06:Solving:Spine2
			{
				OFFSET 0.000000 -8.993092 0.786796
				CHANNELS 6 Xposition Yposition Zposition Xrotation Yrotation Zrotation
				JOINT Haolin_28_06:Solving:Spine3
				{
					OFFSET 0.000000 -9.027443 0.000000
					CHANNELS 6 Xposition Yposition Zposition Xrotation Yrotation Zrotation
					JOINT Haolin_28_06:Solving:Neck
					{
						OFFSET 0.000000 -11.606712 -1.160669
						CHANNELS 6 Xposition Yposition Zposition Xrotation Yrotation Zrotation
						JOINT Haolin_28_06:Solving:Neck1
						{
							OFFSET 0.000000 -7.471592 -0.653680
							CHANNELS 6 Xposition Yposition Zposition Xrotation Yrotation Zrotation
							JOINT Haolin_28_06:Solving:Head
							{
								OFFSET 0.000000 -7.386181 -1.302382
								CHANNELS 6 Xposition Yposition Zposition Xrotation Yrotation Zrotation
								JOINT Haolin_28_06:Solving:HeadEnd
								{
									OFFSET 0.000000 -9.728081 0.000002
									CHANNELS 6 Xposition Yposition Zposition Xrotation Yrotation Zrotation
									End Site
									{
										OFFSET 0.000000 -9.728081 0.000002
									}
								}
							}
						}
					}
					JOINT Haolin_28_06:Solving:RightShoulder
					{
						OFFSET 0.000000 -8.290508 -5.270916
						CHANNELS 6 Xposition Yposition Zposition Xrotation Yrotation Zrotation
						JOINT Haolin_28_06:Solving:RightArm
						{
							OFFSET -19.261074 -0.000008 0.000000
							CHANNELS 6 Xposition Yposition Zposition Xrotation Yrotation Zrotation
							JOINT Haolin_28_06:Solving:RightForeArm
							{
								OFFSET -30.691700 -0.000011 0.000000
								CHANNELS 6 Xposition Yposition Zposition Xrotation Yrotation Zrotation
								JOINT Haolin_28_06:Solving:RightHand
								{
									OFFSET -20.216934 -0.000008 0.000000
									CHANNELS 6 Xposition Yposition Zposition Xrotation Yrotation Zrotation
									JOINT Haolin_28_06:Solving:RightHandThumb1
									{
										OFFSET -4.948814 2.881329 -3.679893
										CHANNELS 6 Xposition Yposition Zposition Xrotation Yrotation Zrotation
										End Site
										{
											OFFSET -7.039886 -0.000004 -7.104978
										}
									}
									JOINT Haolin_28_06:Solving:RightHandMiddle1
									{
										OFFSET -13.196846 -0.000004 0.084595
										CHANNELS 6 Xposition Yposition Zposition Xrotation Yrotation Zrotation
										End Site
										{
											OFFSET -10.002037 -0.000004 0.000000
										}
									}
								}
							}
						}
					}
					JOINT Haolin_28_06:Solving:LeftShoulder
					{
						OFFSET 0.000000 -8.290508 -5.270916
						CHANNELS 6 Xposition Yposition Zposition Xrotation Yrotation Zrotation
						JOINT Haolin_28_06:Solving:LeftArm
						{
							OFFSET 19.261074 -0.000008 0.000000
							CHANNELS 6 Xposition Yposition Zposition Xrotation Yrotation Zrotation
							JOINT Haolin_28_06:Solving:LeftForeArm
							{
								OFFSET 30.691700 -0.000011 0.000000
								CHANNELS 6 Xposition Yposition Zposition Xrotation Yrotation Zrotation
								JOINT Haolin_28_06:Solving:LeftHand
								{
									OFFSET 20.216934 -0.000008 0.000000
									CHANNELS 6 Xposition Yposition Zposition Xrotation Yrotation Zrotation
									JOINT Haolin_28_06:Solving:LeftHandThumb1
									{
										OFFSET 4.948814 2.881329 -3.679893
										CHANNELS 6 Xposition Yposition Zposition Xrotation Yrotation Zrotation
										End Site
										{
											OFFSET 7.039886 -0.000004 -7.104978
										}
									}
									JOINT Haolin_28_06:Solving:LeftHandMiddle1
									{
										OFFSET 13.196846 -0.000004 0.084595
										CHANNELS 6 Xposition Yposition Zposition Xrotation Yrotation Zrotation
										End Site
										{
											OFFSET 10.002037 -0.000004 0.000000
										}
									}
								}
							}
						}
					}
				}
			}
		}
	}
	JOINT Haolin_28_06:Solving:RightUpLeg
	{
		OFFSET -10.083070 0.000000 0.000000
		CHANNELS 6 Xposition Yposition Zposition Xrotation Yrotation Zrotation
		JOINT Haolin_28_06:Solving:RightLeg
		{
			OFFSET 0.000000 47.042522 -0.000008
			CHANNELS 6 Xposition Yposition Zposition Xrotation Yrotation Zrotation
			JOINT Haolin_28_06:Solving:RightFoot
			{
				OFFSET 0.000000 38.766415 -0.000006
				CHANNELS 6 Xposition Yposition Zposition Xrotation Yrotation Zrotation
				JOINT Haolin_28_06:Solving:RightForeFoot
				{
					OFFSET 0.000000 3.531212 -0.000000
					CHANNELS 6 Xposition Yposition Zposition Xrotation Yrotation Zrotation
					JOINT Haolin_28_06:Solving:RightToeBase
					{
						OFFSET 0.000000 0.000000 -13.829352
						CHANNELS 6 Xposition Yposition Zposition Xrotation Yrotation Zrotation
						JOINT Haolin_28_06:Solving:RightToeBaseEnd
						{
							OFFSET 0.000000 0.000000 -4.034167
							CHANNELS 6 Xposition Yposition Zposition Xrotation Yrotation Zrotation
							End Site
							{
								OFFSET 0.000000 -4.034164 0.000004
							}
						}
					}
				}
			}
		}
	}
	JOINT Haolin_28_06:Solving:LeftUpLeg
	{
		OFFSET 10.083070 0.000000 0.000000
		CHANNELS 6 Xposition Yposition Zposition Xrotation Yrotation Zrotation
		JOINT Haolin_28_06:Solving:LeftLeg
		{
			OFFSET 0.000000 47.042522 -0.000008
			CHANNELS 6 Xposition Yposition Zposition Xrotation Yrotation Zrotation
			JOINT Haolin_28_06:Solving:LeftFoot
			{
				OFFSET 0.000000 38.766415 -0.000006
				CHANNELS 6 Xposition Yposition Zposition Xrotation Yrotation Zrotation
				JOINT Haolin_28_06:Solving:LeftForeFoot
				{
					OFFSET 0.000000 3.531212 -0.000000
					CHANNELS 6 Xposition Yposition Zposition Xrotation Yrotation Zrotation
					JOINT Haolin_28_06:Solving:LeftToeBase
					{
						OFFSET 0.000000 0.000000 -13.829352
						CHANNELS 6 Xposition Yposition Zposition Xrotation Yrotation Zrotation
						JOINT Haolin_28_06:Solving:LeftToeBaseEnd
						{
							OFFSET 0.000000 0.000000 -4.855067
							CHANNELS 6 Xposition Yposition Zposition Xrotation Yrotation Zrotation
							End Site
							{
								OFFSET 0.000000 -4.855064 0.000004
							}
						}
					}
				}
			}
		}
	}
}
MOTION
Frames: 5
Frame Time: 0.041667
-72.116333 -167.903503 -90.081581 111.004050 3.405034 -1.385764 0.000021 -12.181931 2.015524 24.301569 0.585002 0.154868 0.000005 -8.890271 1.567647 5.913703 -0.158272 -0.256690 0.000015 -8.993103 0.786777 5.819406 -0.667104 1.311942 0.000012 -9.027446 -0.000045 0.124792 -0.929077 3.321042 -0.000015 -11.606681 -1.160661 -14.457999 0.643453 0.429088 -0.000001 -7.471624 -0.653672 -6.581230 -2.806689 -2.545340 0.000001 -7.386173 -1.302418 -3.201631 0.130620 -1.612157 -0.000014 -9.728073 0.000037 -0.000000 0.000000 -0.000000 -0.000022 -8.290512 -5.270940 0.000004 11.825021 14.199104 -19.261072 -0.000008 -0.000002 -54.362654 -50.313059 -96.750968 -30.691692 -0.000023 0.000018 -19.148405 -19.116156 -6.487323 -20.216921 0.000020 -0.000002 2.676589 -14.515124 10.565563 -4.948811 2.881319 -3.679879 -0.000001 -0.000002 0.000005 -13.196853 -0.000030 0.084587 -0.000000 0.000005 0.000002 -0.000020 -8.290512 -5.270933 0.000002 -4.402200 -17.008460 19.261065 -0.000034 -0.000000 -49.591613 53.566151 85.346342 30.691711 -0.000035 -0.000013 -8.801182 9.031273 1.392249 20.216904 -0.000017 -0.000004 0.936478 4.060499 -12.998716 4.948790 2.881329 -3.679872 0.000003 -0.000009 -0.000003 13.196828 -0.000002 0.084590 -0.000002 0.000001 -0.000003 -10.083044 0.000013 -0.000052 -43.874195 17.478779 10.418904 -0.000020 47.042530 -0.000010 27.483990 -0.000001 -0.000002 -0.000017 38.766430 -0.000010 1.425235 4.280593 1.539012 -0.000024 3.531219 0.000004 0.000000 -0.000002 -0.000000 -0.000030 0.000001 -13.829329 -2.966116 0.000005 -0.000001 0.000015 -0.000008 -4.034195 -0.000001 0.000006 -0.000001 10.083070 0.000045 -0.000025 -45.163933 -20.720851 -11.400423 -0.000020 47.042511 -0.000017 32.522946 -0.000005 -0.000002 -0.000003 38.766441 0.000009 -2.716967 -11.094838 7.155027 0.000006 3.531204 -0.000056 0.000001 -0.000004 0.000001 0.000009 0.000019 -13.829364 2.767541 -0.000001 -0.000000 0.000015 -0.000009 -4.855078 -0.000002 0.000007 -0.000002 
-72.126122 -168.367798 -89.857559 112.063672 3.408335 -1.420035 0.000005 -12.181957 2.015551 24.332020 0.599711 0.201589 -0.000009 -8.890277 1.567578 6.080898 -0.170100 -0.229039 0.000006 -8.993098 0.786775 5.934299 -0.673543 1.397918 0.000006 -9.027421 -0.000012 -0.089629 -0.917496 3.359462 -0.000004 -11.606662 -1.160663 -14.922107 0.582096 0.521884 -0.000003 -7.471587 -0.653653 -6.931419 -2.786229 -2.596018 -0.000002 -7.386182 -1.302376 -3.510795 0.133237 -1.608528 0.000007 -9.728096 -0.000002 0.000003 0.000000 0.000000 0.000001 -8.290504 -5.270930 -0.000010 11.623092 14.334253 -19.261082 -0.000027 -0.000002 -55.020370 -49.825530 -96.642601 -30.691708 -0.000034 0.000007 -19.446068 -19.023680 -6.564883 -20.216938 0.000014 0.000015 2.713340 -14.611173 10.640204 -4.948782 2.881335 -3.679889 0.000001 0.000003 0.000002 -13.196836 -0.000016 0.084560 0.000006 -0.000002 0.000004 0.000003 -8.290508 -5.270922 -0.000006 -4.368674 -17.184809 19.261068 -0.000029 0.000002 -50.337541 53.411932 84.926565 30.691713 -0.000016 -0.000007 -9.356575 8.695915 1.427039 20.216915 -0.000023 0.000003 1.019701 3.998318 -14.319806 4.948803 2.881327 -3.679903 -0.000012 0.000002 -0.000004 13.196834 0.000015 0.084591 -0.000005 -0.000001 0.000004 -10.083064 0.000030 0.000002 -45.648186 17.540385 10.520256 0.000006 47.042530 0.000030 28.296733 0.000003 -0.000003 -0.000003 38.766415 -0.000029 1.234091 4.145308 1.567619 0.000022 3.531212 0.000009 0.000002 0.000002 0.000000 -0.000018 -0.000010 -13.829363 -2.951698 0.000003 0.000000 -0.000020 -0.000000 -4.034173 -0.000001 -0.000002 0.000000 10.083075 0.000013 -0.000005 -46.939632 -20.700639 -11.636048 0.000000 47.042557 -0.000012 33.253988 -0.000004 -0.000000 -0.000006 38.766422 -0.000015 -2.887272 -11.033924 7.174846 -0.000013 3.531204 0.000027 0.000001 -0.000004 0.000000 0.000011 0.000007 -13.829333 2.855532 0.000001 -0.000001 0.000010 -0.000000 -4.855051 -0.000001 0.000002 0.000000 
-72.136879 -168.827744 -89.630058 113.123628 3.391885 -1.448281 -0.000015 -12.181955 2.015539 24.346083 0.607747 0.231398 -0.000003 -8.890307 1.567600 6.265203 -0.180376 -0.201970 -0.000002 -8.993073 0.786807 6.053528 -0.662546 1.493738 0.000002 -9.027433 0.000007 -0.315460 -0.900254 3.411259 -0.000021 -11.606735 -1.160665 -15.312196 0.517790 0.592957 0.000005 -7.471609 -0.653698 -7.377312 -2.795324 -2.650796 -0.000012 -7.386172 -1.302396 -3.827218 0.134034 -1.596804 0.000008 -9.728081 -0.000008 0.000009 -0.000000 0.000000 0.000007 -8.290489 -5.270891 -0.000010 11.406091 14.467027 -19.261061 -0.000041 0.000015 -55.685327 -49.370117 -96.535647 -30.691706 -0.000028 0.000018 -19.705384 -18.933389 -6.628664 -20.216921 0.000000 -0.000002 2.716718 -14.644359 10.630110 -4.948802 2.881313 -3.679847 0.000006 -0.000005 0.000005 -13.196863 -0.000021 0.084606 0.000009 0.000001 -0.000002 -0.000000 -8.290489 -5.270891 0.000001 -4.360909 -17.385273 19.261065 -0.000003 -0.000017 -51.149374 53.304596 84.546547 30.691694 -0.000035 0.000016 -9.828608 8.325016 1.436892 20.216925 0.000005 -0.000001 1.052356 3.787763 -15.539334 4.948803 2.881321 -3.679899 -0.000004 -0.000002 -0.000005 13.196849 0.000007 0.084593 -0.000003 0.000001 0.000004 -10.083075 0.000017 -0.000030 -47.424964 17.638798 10.638546 0.000016 47.042538 -0.000012 29.106513 -0.000002 -0.000001 0.000012 38.766415 -0.000020 1.047226 3.999469 1.582546 0.000001 3.531212 -0.000006 0.000001 0.000004 -0.000001 0.000018 0.000010 -13.829371 -2.979530 0.000005 -0.000000 -0.000014 -0.000000 -4.034174 -0.000000 -0.000005 0.000001 10.083066 0.000002 -0.000031 -48.725299 -20.589957 -11.841302 0.000015 47.042515 0.000019 34.036486 -0.000002 -0.000000 -0.000012 38.766418 -0.000009 -3.048913 -11.060069 7.108915 -0.000001 3.531204 -0.000037 0.000001 0.000002 -0.000001 -0.000032 0.000012 -13.829367 2.964209 -0.000002 -0.000001 0.000002 0.000000 -4.855076 0.000001 0.000002 0.000001 
-72.143394 -169.266602 -89.396332 114.144072 3.353006 -1.491980 0.000010 -12.181951 2.015592 24.370906 0.618214 0.266657 -0.000004 -8.890272 1.567684 6.466238 -0.190532 -0.176658 0.000014 -8.993141 0.786819 6.167395 -0.634578 1.587243 0.000013 -9.027419 -0.000031 -0.528600 -0.876424 3.459521 0.000009 -11.606735 -1.160642 -15.686469 0.447629 0.656174 0.000002 -7.471607 -0.653672 -7.797512 -2.795107 -2.673352 -0.000008 -7.386210 -1.302363 -4.174060 0.130685 -1.566708 0.000001 -9.728096 -0.000006 0.000004 0.000000 -0.000000 -0.000014 -8.290508 -5.270868 -0.000006 11.216349 14.564636 -19.261093 -0.000015 0.000018 -56.389810 -49.179896 -96.435243 -30.691694 -0.000019 -0.000016 -20.130236 -18.857609 -6.756571 -20.216925 0.000006 0.000003 2.755588 -14.702669 10.738020 -4.948778 2.881319 -3.679874 -0.000003 -0.000005 0.000007 -13.196822 -0.000007 0.084594 0.000005 -0.000000 0.000001 -0.000014 -8.290508 -5.270867 -0.000003 -4.357106 -17.542069 19.261057 -0.000013 0.000001 -51.980909 53.241769 84.145581 30.691704 -0.000026 0.000005 -10.494510 7.943602 1.466441 20.216919 -0.000032 -0.000009 1.101129 3.739384 -16.420932 4.948809 2.881323 -3.679895 -0.000004 -0.000003 0.000003 13.196828 -0.000003 0.084598 -0.000007 -0.000001 -0.000003 -10.083068 -0.000007 -0.000007 -49.169603 17.732587 10.795734 0.000038 47.042530 -0.000005 29.937214 -0.000006 -0.000001 0.000011 38.766415 0.000040 0.820503 3.862317 1.595356 0.000028 3.531197 -0.000014 0.000000 -0.000004 -0.000000 0.000010 0.000004 -13.829404 -2.953412 -0.000007 -0.000000 -0.000001 -0.000000 -4.034172 -0.000000 -0.000003 0.000000 10.083093 0.000014 0.000023 -50.449365 -20.546210 -12.026291 -0.000002 47.042515 0.000028 34.795186 0.000001 -0.000002 -0.000006 38.766411 -0.000001 -3.222680 -11.013002 7.091384 0.000009 3.531212 0.000038 0.000001 -0.000001 0.000001 -0.000008 0.000008 -13.829359 3.043891 -0.000001 0.000001 0.000012 -0.000016 -4.855030 -0.000001 -0.000002 0.000000 
-72.151855 -169.683838 -89.160355 115.133002 3.322515 -1.524956 -0.000004 -12.181971 2.015546 24.408639 0.596053 0.292304 -0.000002 -8.890273 1.567601 6.654320 -0.200349 -0.146502 0.000000 -8.993098 0.786784 6.275708 -0.607317 1.675958 0.000007 -9.027435 0.000008 -0.719728 -0.849533 3.492755 0.000018 -11.606689 -1.160650 -16.003854 0.376903 0.725160 0.000000 -7.471598 -0.653680 -8.243977 -2.779766 -2.663978 0.000015 -7.386218 -1.302354 -4.479100 0.124418 -1.524448 0.000008 -9.728104 0.000021 0.000003 -0.000000 -0.000000 -0.000003 -8.290478 -5.270889 -0.000005 11.030343 14.672047 -19.261072 0.000007 -0.000000 -57.133566 -48.892441 -96.336499 -30.691710 -0.000033 -0.000016 -20.625213 -18.641927 -6.860282 -20.216927 -0.000008 0.000010 2.746780 -14.843750 10.607264 -4.948797 2.881304 -3.679885 -0.000002 0.000002 0.000003 -13.196837 -0.000008 0.084588 -0.000000 -0.000004 0.000001 -0.000001 -8.290478 -5.270889 -0.000002 -4.316360 -17.626336 19.261074 -0.000008 -0.000011 -52.766493 53.239733 83.664114 30.691698 0.000009 0.000007 -11.154007 7.571930 1.488287 20.216913 -0.000023 0.000004 1.121779 3.660462 -17.051144 4.948837 2.881350 -3.679901 -0.000005 -0.000009 -0.000002 13.196856 -0.000007 0.084579 -0.000006 -0.000001 0.000003 -10.083064 0.000025 0.000010 -50.867465 17.843763 10.945251 -0.000004 47.042534 -0.000010 30.761980 0.000000 -0.000004 -0.000047 38.766430 -0.000011 0.606701 3.712772 1.633513 -0.000013 3.531212 0.000041 0.000001 0.000001 -0.000000 0.000036 0.000013 -13.829352 -2.970689 -0.000002 -0.000000 0.000023 -0.000008 -4.034178 -0.000001 -0.000001 0.000000 10.083074 -0.000005 -0.000038 -52.129752 -20.483305 -12.224246 0.000014 47.042526 0.000003 35.554133 -0.000002 -0.000001 -0.000006 38.766430 -0.000022 -3.384579 -10.950478 7.070831 -0.000005 3.531204 -0.000004 0.000000 0.000000 -0.000001 -0.000012 0.000003 -13.829378 3.058213 -0.000003 -0.000000 -0.000009 0.000000 -4.855071 0.000001 -0.000003 0.000001 
